<svg enable-background="new 0 0 400 400" viewBox="0 0 400 400" xmlns="http://www.w3.org/2000/svg"><text fill="#f0f" font-family="'SFCollegiateSolid-Bold'" font-size="86.9624" transform="translate(16.0005 177.6841)">GAME OVER</text><g fill="#fff"><path d="m32.71 189.99h-3.98v15.76h-4.26v-15.76h-3.98v-4.59h12.22z"/><path d="m45.33 205.75h-4.26v-7.87h-2.39v7.87h-4.26v-20.35h4.26v7.89h2.39v-7.89h4.26z"/><path d="m57.28 205.75h-9.56v-20.35h9.56v4.59h-5.31v3.29h5.31v4.59h-5.31v3.31h5.31z"/><path d="m78.83 205.75h-4.24l-.45-2.86h-3.14l-.45 2.86h-4.23l3.49-20.35h5.53zm-5.43-7.44-.83-5.24-.82 5.24z"/><path d="m89.43 205.75h-9.56v-20.35h4.26v15.78h5.31v4.57z"/><path d="m95.41 205.75h-4.26v-20.35h4.26z"/><path d="m107.36 205.75h-9.56v-20.35h9.56v4.59h-5.31v3.29h5.31v4.59h-5.31v3.31h5.31z"/><path d="m120.66 205.75h-4.22l-2.43-7.32v7.32h-4.26v-20.35h4.22l2.43 7.34v-7.34h4.26z"/><path d="m133.95 202.81-2.74 2.94h-5.42l-2.74-2.94v-3.07h4.26v1.44h2.39v-3.31h-3.91l-2.74-2.95v-6.57l2.74-2.96h5.42l2.74 2.96v3.07h-4.26v-1.43h-2.39v3.29h3.91l2.74 2.95z"/><path d="m155.2 202.81-2.74 2.94h-8.16v-20.35h8.16l2.74 2.96zm-4.26-1.63v-11.19h-2.39v11.19z"/><path d="m167.15 205.75h-9.56v-20.35h9.56v4.59h-5.31v3.29h5.31v4.59h-5.31v3.31h5.31z"/><path d="m180.45 202.81-2.74 2.94h-5.42l-2.74-2.94v-3.07h4.26v1.44h2.39v-3.31h-3.91l-2.74-2.95v-6.57l2.74-2.96h5.42l2.74 2.96v3.07h-4.25v-1.43h-2.39v3.29h3.91l2.74 2.95v6.58z"/><path d="m194.39 189.99h-3.98v15.76h-4.25v-15.76h-3.98v-4.59h12.22v4.59z"/><path d="m207.02 205.75h-4.25v-7.87h-2.39v7.87h-4.26v-20.35h8.16l2.74 2.96v5.28l-1.8 1.95 1.8 1.95zm-4.26-12.47v-3.29h-2.39v3.29z"/><path d="m220.3 202.81-2.74 2.94h-5.42l-2.74-2.94v-14.45l2.74-2.96h5.42l2.74 2.96zm-4.25-1.63v-11.19h-2.39v11.19z"/><path d="m233.65 185.4-4.05 10.78v9.57h-4.26v-9.57l-4.03-10.78h4.26l1.91 5.34 1.89-5.34z"/><path d="m244.21 205.75h-9.56v-20.35h9.56v4.59h-5.31v3.29h5.31v4.59h-5.31v3.31h5.31z"/><path d="m257.51 202.81-2.74 2.94h-8.16v-20.35h8.16l2.74 2.96zm-4.25-1.63v-11.19h-2.39v11.19z"/><path d="m278.76 205.75h-4.25v-7.87h-2.39v7.87h-4.26v-20.35h4.26v7.89h2.39v-7.89h4.25z"/><path d="m292.05 202.81-2.74 2.94h-5.42l-2.74-2.94v-17.41h4.26v15.78h2.39v-15.78h4.25z"/><path d="m307.99 205.75h-4.25v-6.55l-2.53 6.81-2.52-6.81v6.55h-4.26v-20.35h4.22l2.56 6.93 2.57-6.93h4.22v20.35z"/><path d="m321.57 205.75h-4.24l-.45-2.86h-3.14l-.45 2.86h-4.23l3.49-20.35h5.53zm-5.44-7.44-.83-5.24-.82 5.24z"/><path d="m333.5 205.75h-4.22l-2.43-7.32v7.32h-4.26v-20.35h4.22l2.43 7.34v-7.34h4.25v20.35z"/><path d="m346.84 205.75h-4.27l-2.43-7.32v7.32h-4.26v-20.35h4.26v7.34l2.43-7.34h4.27l-3.36 10.18z"/><path d="m353.43 205.75h-4.26v-20.35h4.26z"/><path d="m366.71 205.75h-4.22l-2.43-7.32v7.32h-4.26v-20.35h4.22l2.43 7.34v-7.34h4.25v20.35z"/><path d="m380 202.81-2.74 2.94h-8.16v-20.35h8.16l2.74 2.96zm-4.25-1.63v-11.19h-2.39v11.19z"/><path d="m36.57 233.33h-5.75l-.62-3.59h-4.25l-.62 3.59h-5.73l4.73-25.54h7.49zm-7.37-9.33-1.12-6.57-1.11 6.57z"/><path d="m52.74 233.33h-5.71l-3.29-9.19v9.19h-5.77v-25.54h5.71l3.29 9.21v-9.21h5.77z"/><path d="m70.74 229.64-3.71 3.69h-11.06v-25.54h11.06l3.71 3.71zm-5.77-2.04v-14.04h-3.23v14.04z"/><path d="m90.53 233.33h-5.77v-25.54h5.77z"/><path d="m109.43 213.56h-5.4v19.78h-5.77v-19.78h-5.4v-5.77h16.56v5.77z"/><path d="m128.32 233.33h-5.77v-25.54h5.77z"/><path d="m146.32 229.64-3.71 3.69h-7.35l-3.71-3.69v-3.85h5.77v1.81h3.23v-4.15h-5.29l-3.71-3.71v-8.24l3.71-3.71h7.35l3.71 3.71v3.85h-5.77v-1.79h-3.23v4.13h5.29l3.71 3.71z"/><path d="m175.5 233.33h-5.75l-.62-3.59h-4.25l-.62 3.59h-5.73l4.73-25.54h7.49zm-7.36-9.33-1.12-6.57-1.11 6.57z"/><path d="m189.87 233.33h-12.95v-25.54h5.77v19.81h7.19v5.73z"/><path d="m205.16 233.33h-12.96v-25.54h5.77v19.81h7.19z"/><path d="m233.14 207.79-5.48 13.54v12.01h-5.77v-12.01l-5.47-13.54h5.77l2.58 6.7 2.57-6.7z"/><path d="m249.26 229.64-3.71 3.69h-7.35l-3.71-3.69v-18.14l3.71-3.71h7.35l3.71 3.71zm-5.76-2.04v-14.04h-3.23v14.04z"/><path d="m267.26 229.64-3.71 3.69h-7.35l-3.71-3.69v-21.85h5.77v19.81h3.23v-19.81h5.77z"/><path d="m285.26 233.33h-5.77v-9.88h-3.23v9.88h-5.77v-25.54h11.06l3.71 3.71v6.63l-2.44 2.44 2.44 2.44zm-5.76-15.64v-4.13h-3.23v4.13z"/><path d="m312.24 223.46h-7.19v9.88h-5.77v-25.54h12.96v5.77h-7.19v4.13h7.19z"/><path d="m329.73 233.33h-5.75l-.62-3.59h-4.25l-.62 3.59h-5.73l4.73-25.54h7.49zm-7.36-9.33-1.12-6.57-1.11 6.57z"/><path d="m345.91 229.64-3.71 3.69h-7.35l-3.71-3.69v-21.85h5.77v19.81h3.23v-19.81h5.77z"/><path d="m362.1 233.33h-12.96v-25.54h5.77v19.81h7.19z"/><path d="m380.1 213.56h-5.4v19.78h-5.77v-19.78h-5.4v-5.77h16.56v5.77z"/></g></svg>