<?xml version="1.0" encoding="utf-8"?>
<!-- Generator: Adobe Illustrator 24.1.0, SVG Export Plug-In . SVG Version: 6.00 Build 0)  -->
<svg version="1.1" id="Layer_1" xmlns="http://www.w3.org/2000/svg" xmlns:xlink="http://www.w3.org/1999/xlink" x="0px" y="0px"
	 viewBox="0 0 400 400" style="enable-background:new 0 0 400 400;" xml:space="preserve">
<style type="text/css">
	.st0{fill:#FF00FF;}
	.st1{fill:#FFFFFF;}
</style>
<g>
	<path class="st0" d="M55.58,169.15l-8.96,8.92H28.87l-8.96-8.92v-43.82l8.96-8.96h17.75l8.96,8.96V139H41.65v-8.7h-7.81v33.93h7.81
		v-5.69h-4.33v-13.89h18.26V169.15z"/>
	<path class="st0" d="M99.99,178.07H86.11l-1.49-8.66H74.34l-1.49,8.66H59.01l11.42-61.7h18.09L99.99,178.07z M82.2,155.52
		l-2.72-15.88l-2.67,15.88H82.2z"/>
	<path class="st0" d="M147.76,178.07h-13.93v-19.87l-8.28,20.64l-8.24-20.64v19.87h-13.93v-61.7h13.8l8.37,21.02l8.41-21.02h13.8
		V178.07z"/>
	<path class="st0" d="M186.87,178.07h-31.29v-61.7h31.29v13.93H169.5v9.98h17.37v13.93H169.5v10.02h17.37V178.07z"/>
	<path class="st0" d="M256.46,169.15l-8.96,8.92h-17.75l-8.96-8.92v-43.82l8.96-8.96h17.75l8.96,8.96V169.15z M242.54,164.22V130.3
		h-7.81v33.93H242.54z"/>
	<path class="st0" d="M300.88,116.37l-11.46,61.7h-18.09l-11.42-61.7h13.84l6.62,38.47l6.62-38.47H300.88z"/>
	<path class="st0" d="M335.57,178.07h-31.29v-61.7h31.29v13.93H318.2v9.98h17.37v13.93H318.2v10.02h17.37V178.07z"/>
	<path class="st0" d="M379.09,178.07h-13.93V154.2h-7.81v23.86h-13.93v-61.7h26.71l8.96,8.96v16.01l-5.9,5.9l5.9,5.9V178.07z
		 M365.17,140.27v-9.98h-7.81v9.98H365.17z"/>
</g>
<g>
	<path class="st1" d="M32.71,189.99h-3.98v15.76h-4.26v-15.76h-3.98v-4.59h12.22V189.99z"/>
	<path class="st1" d="M45.33,205.75h-4.26v-7.87h-2.39v7.87h-4.26V185.4h4.26v7.89h2.39v-7.89h4.26V205.75z"/>
	<path class="st1" d="M57.28,205.75h-9.56V185.4h9.56v4.59h-5.31v3.29h5.31v4.59h-5.31v3.31h5.31V205.75z"/>
	<path class="st1" d="M78.83,205.75h-4.24l-0.45-2.86H71l-0.45,2.86h-4.23l3.49-20.35h5.53L78.83,205.75z M73.4,198.31l-0.83-5.24
		l-0.82,5.24H73.4z"/>
	<path class="st1" d="M89.43,205.75h-9.56V185.4h4.26v15.78h5.31V205.75z"/>
	<path class="st1" d="M95.41,205.75h-4.26V185.4h4.26V205.75z"/>
	<path class="st1" d="M107.36,205.75H97.8V185.4h9.56v4.59h-5.31v3.29h5.31v4.59h-5.31v3.31h5.31V205.75z"/>
	<path class="st1" d="M120.66,205.75h-4.22l-2.43-7.32v7.32h-4.26V185.4h4.22l2.43,7.34v-7.34h4.26V205.75z"/>
	<path class="st1" d="M133.95,202.81l-2.74,2.94h-5.42l-2.74-2.94v-3.07h4.26v1.44h2.39v-3.31h-3.91l-2.74-2.95v-6.57l2.74-2.96
		h5.42l2.74,2.96v3.07h-4.26v-1.43h-2.39v3.29h3.91l2.74,2.95V202.81z"/>
	<path class="st1" d="M155.2,202.81l-2.74,2.94h-8.16V185.4h8.16l2.74,2.96V202.81z M150.94,201.18v-11.19h-2.39v11.19H150.94z"/>
	<path class="st1" d="M167.15,205.75h-9.56V185.4h9.56v4.59h-5.31v3.29h5.31v4.59h-5.31v3.31h5.31V205.75z"/>
	<path class="st1" d="M180.45,202.81l-2.74,2.94h-5.42l-2.74-2.94v-3.07h4.26v1.44h2.39v-3.31h-3.91l-2.74-2.95v-6.57l2.74-2.96
		h5.42l2.74,2.96v3.07h-4.25v-1.43h-2.39v3.29h3.91l2.74,2.95V202.81z"/>
	<path class="st1" d="M194.39,189.99h-3.98v15.76h-4.25v-15.76h-3.98v-4.59h12.22V189.99z"/>
	<path class="st1" d="M207.02,205.75h-4.25v-7.87h-2.39v7.87h-4.26V185.4h8.16l2.74,2.96v5.28l-1.8,1.95l1.8,1.95V205.75z
		 M202.76,193.28v-3.29h-2.39v3.29H202.76z"/>
	<path class="st1" d="M220.3,202.81l-2.74,2.94h-5.42l-2.74-2.94v-14.45l2.74-2.96h5.42l2.74,2.96V202.81z M216.05,201.18v-11.19
		h-2.39v11.19H216.05z"/>
	<path class="st1" d="M233.65,185.4l-4.05,10.78v9.57h-4.26v-9.57l-4.03-10.78h4.26l1.91,5.34l1.89-5.34H233.65z"/>
	<path class="st1" d="M244.21,205.75h-9.56V185.4h9.56v4.59h-5.31v3.29h5.31v4.59h-5.31v3.31h5.31V205.75z"/>
	<path class="st1" d="M257.51,202.81l-2.74,2.94h-8.16V185.4h8.16l2.74,2.96V202.81z M253.26,201.18v-11.19h-2.39v11.19H253.26z"/>
	<path class="st1" d="M278.76,205.75h-4.25v-7.87h-2.39v7.87h-4.26V185.4h4.26v7.89h2.39v-7.89h4.25V205.75z"/>
	<path class="st1" d="M292.05,202.81l-2.74,2.94h-5.42l-2.74-2.94V185.4h4.26v15.78h2.39V185.4h4.25V202.81z"/>
	<path class="st1" d="M307.99,205.75h-4.25v-6.55l-2.53,6.81l-2.52-6.81v6.55h-4.26V185.4h4.22l2.56,6.93l2.57-6.93h4.22V205.75z"/>
	<path class="st1" d="M321.57,205.75h-4.24l-0.45-2.86h-3.14l-0.45,2.86h-4.23l3.49-20.35h5.53L321.57,205.75z M316.13,198.31
		l-0.83-5.24l-0.82,5.24H316.13z"/>
	<path class="st1" d="M333.5,205.75h-4.22l-2.43-7.32v7.32h-4.26V185.4h4.22l2.43,7.34v-7.34h4.25V205.75z"/>
	<path class="st1" d="M346.84,205.75h-4.27l-2.43-7.32v7.32h-4.26V185.4h4.26v7.34l2.43-7.34h4.27l-3.36,10.18L346.84,205.75z"/>
	<path class="st1" d="M353.43,205.75h-4.26V185.4h4.26V205.75z"/>
	<path class="st1" d="M366.71,205.75h-4.22l-2.43-7.32v7.32h-4.26V185.4h4.22l2.43,7.34v-7.34h4.25V205.75z"/>
	<path class="st1" d="M380,202.81l-2.74,2.94h-8.16V185.4h8.16l2.74,2.96V202.81z M375.75,201.18v-11.19h-2.39v11.19H375.75z"/>
</g>
<g>
	<path class="st1" d="M36.57,233.33h-5.75l-0.62-3.59h-4.25l-0.62,3.59H19.6l4.73-25.54h7.49L36.57,233.33z M29.2,224l-1.12-6.57
		L26.97,224H29.2z"/>
	<path class="st1" d="M52.74,233.33h-5.71l-3.29-9.19v9.19h-5.77v-25.54h5.71l3.29,9.21v-9.21h5.77V233.33z"/>
	<path class="st1" d="M70.74,229.64l-3.71,3.69H55.97v-25.54h11.06l3.71,3.71V229.64z M64.97,227.6v-14.04h-3.23v14.04H64.97z"/>
	<path class="st1" d="M90.53,233.33h-5.77v-25.54h5.77V233.33z"/>
	<path class="st1" d="M109.43,213.56h-5.4v19.78h-5.77v-19.78h-5.4v-5.77h16.56V213.56z"/>
	<path class="st1" d="M128.32,233.33h-5.77v-25.54h5.77V233.33z"/>
	<path class="st1" d="M146.32,229.64l-3.71,3.69h-7.35l-3.71-3.69v-3.85h5.77v1.81h3.23v-4.15h-5.29l-3.71-3.71v-8.24l3.71-3.71
		h7.35l3.71,3.71v3.85h-5.77v-1.79h-3.23v4.13h5.29l3.71,3.71V229.64z"/>
	<path class="st1" d="M175.5,233.33h-5.75l-0.62-3.59h-4.25l-0.62,3.59h-5.73l4.73-25.54h7.49L175.5,233.33z M168.14,224l-1.12-6.57
		l-1.11,6.57H168.14z"/>
	<path class="st1" d="M189.87,233.33h-12.95v-25.54h5.77v19.81h7.19V233.33z"/>
	<path class="st1" d="M205.16,233.33H192.2v-25.54h5.77v19.81h7.19V233.33z"/>
	<path class="st1" d="M233.14,207.79l-5.48,13.54v12.01h-5.77v-12.01l-5.47-13.54h5.77l2.58,6.7l2.57-6.7H233.14z"/>
	<path class="st1" d="M249.26,229.64l-3.71,3.69h-7.35l-3.71-3.69V211.5l3.71-3.71h7.35l3.71,3.71V229.64z M243.5,227.6v-14.04
		h-3.23v14.04H243.5z"/>
	<path class="st1" d="M267.26,229.64l-3.71,3.69h-7.35l-3.71-3.69v-21.85h5.77v19.81h3.23v-19.81h5.77V229.64z"/>
	<path class="st1" d="M285.26,233.33h-5.77v-9.88h-3.23v9.88h-5.77v-25.54h11.06l3.71,3.71v6.63l-2.44,2.44l2.44,2.44V233.33z
		 M279.5,217.69v-4.13h-3.23v4.13H279.5z"/>
	<path class="st1" d="M312.24,223.46h-7.19v9.88h-5.77v-25.54h12.96v5.77h-7.19v4.13h7.19V223.46z"/>
	<path class="st1" d="M329.73,233.33h-5.75l-0.62-3.59h-4.25l-0.62,3.59h-5.73l4.73-25.54h7.49L329.73,233.33z M322.37,224
		l-1.12-6.57l-1.11,6.57H322.37z"/>
	<path class="st1" d="M345.91,229.64l-3.71,3.69h-7.35l-3.71-3.69v-21.85h5.77v19.81h3.23v-19.81h5.77V229.64z"/>
	<path class="st1" d="M362.1,233.33h-12.96v-25.54h5.77v19.81h7.19V233.33z"/>
	<path class="st1" d="M380.1,213.56h-5.4v19.78h-5.77v-19.78h-5.4v-5.77h16.56V213.56z"/>
</g>
</svg>
