<svg enable-background="new 0 0 400 400" viewBox="0 0 400 400" xmlns="http://www.w3.org/2000/svg"><g fill="#ff0"><path d="m51.24 307.17-15.58 2.95-14.01-74.09 15.58-2.95z"/><path d="m103.05 297.38-15.58 2.95-15.92-27.66 5.6 29.61-15.58 2.95-14.01-74.09 15.58-2.95 15.93 27.71-5.61-29.66 15.58-2.95z"/><path d="m141.86 213.29.55 76.64-20.74 3.92-27.47-71.55 15.53-2.94 17.65 47.88-1.05-51.02z"/><path d="m203.54 278.37-15.54 2.94-3.77-10.26-13.05 2.47.23 10.93-15.53 2.94-.55-76.64 20.74-3.92zm-24.99-22.67-8.18-22.21.49 23.67z"/><path d="m248.18 258.96-8.37 12.55-20.74 3.92-12.38-8.63-2-10.59 15.58-2.95 1.01 5.32 10.32-1.95-2.5-13.23-15.53 2.94-12.38-8.63-4.5-23.82 8.37-12.55 20.74-3.92 12.38 8.63 2 10.59-15.58 2.95-1-5.27-10.32 1.95 2.5 13.23 15.53-2.94 12.37 8.58z"/><path d="m276.09 264.65-15.58 2.95-14.01-74.1 15.58-2.95z"/><path d="m325.9 244.26-8.37 12.55-20.74 3.92-12.38-8.63-10.01-52.91 8.37-12.55 20.74-3.92 12.38 8.63zm-16.58-2.32-8-42.32-10.32 1.95 8 42.32z"/><path d="m379.72 245.05-15.59 2.95-15.92-27.66 5.6 29.61-15.58 2.95-14.01-74.09 15.58-2.95 15.93 27.71-5.61-29.66 15.58-2.95z"/><path d="m98.34 215.35-25.36 4.8-6.09-16.39-21.31 4.03.31 17.49-25.36 4.8-.43-122.65 33.87-6.41zm-40.63-36.13-13.22-35.5.66 37.88z"/><path d="m166.01 202.56-59.24 11.2-22.41-118.49 25.45-4.81 17.61 93.12 33.79-6.39z"/><path d="m204.09 195.36-25.45 4.81-22.4-118.49 25.45-4.81z"/><path d="m280.18 180.97-59.23 11.2-22.41-118.49 59.23-11.2 4.81 25.45-33.79 6.39 4 21.15 33.79-6.39 4.8 25.37-33.79 6.39 4 21.15 33.79-6.39z"/><path d="m364.86 164.95-25.44 4.81-25.81-44.16 8.95 47.35-25.44 4.81-22.41-118.49 25.44-4.81 25.82 44.24-8.97-47.43 25.44-4.81z"/></g></svg>