<svg enable-background="new 0 0 400 400" viewBox="0 0 400 400" xmlns="http://www.w3.org/2000/svg"><g fill="#ff0"><path d="m51.24 307.17-15.58 2.95-14.01-74.09 15.58-2.95z"/><path d="m103.05 297.38-15.58 2.95-15.92-27.66 5.6 29.61-15.58 2.95-14.01-74.09 15.58-2.95 15.93 27.71-5.61-29.66 15.58-2.95z"/><path d="m141.86 213.29.55 76.64-20.74 3.92-27.47-71.55 15.53-2.94 17.65 47.88-1.05-51.02z"/><path d="m203.54 278.37-15.54 2.94-3.77-10.26-13.05 2.47.23 10.93-15.53 2.94-.55-76.64 20.74-3.92zm-24.99-22.67-8.18-22.21.49 23.67z"/><path d="m248.18 258.96-8.37 12.55-20.74 3.92-12.38-8.63-2-10.59 15.58-2.95 1.01 5.32 10.32-1.95-2.5-13.23-15.53 2.94-12.38-8.63-4.5-23.82 8.37-12.55 20.74-3.92 12.38 8.63 2 10.59-15.58 2.95-1-5.27-10.32 1.95 2.5 13.23 15.53-2.94 12.37 8.58z"/><path d="m276.09 264.65-15.58 2.95-14.01-74.1 15.58-2.95z"/><path d="m325.9 244.26-8.37 12.55-20.74 3.92-12.38-8.63-10.01-52.91 8.37-12.55 20.74-3.92 12.38 8.63zm-16.58-2.32-8-42.32-10.32 1.95 8 42.32z"/><path d="m379.72 245.05-15.59 2.95-15.92-27.66 5.6 29.61-15.58 2.95-14.01-74.09 15.58-2.95 15.93 27.71-5.61-29.66 15.58-2.95z"/><path d="m98.34 215.35-25.36 4.8-6.09-16.39-21.31 4.03.31 17.49-25.36 4.8-.43-122.65 33.87-6.41zm-40.63-36.13-13.22-35.5.66 37.88z"/><path d="m166.01 202.56-59.24 11.2-22.41-118.49 25.45-4.81 17.61 93.12 33.79-6.39z"/><path d="m204.09 195.36-25.45 4.81-22.4-118.49 25.45-4.81z"/><path d="m280.18 180.97-59.23 11.2-22.41-118.49 59.23-11.2 4.81 25.45-33.79 6.39 4 21.15 33.79-6.39 4.8 25.37-33.79 6.39 4 21.15 33.79-6.39z"/><path d="m364.86 164.95-25.44 4.81-25.81-44.16 8.95 47.35-25.44 4.81-22.41-118.49 25.44-4.81 25.82 44.24-8.97-47.43 25.44-4.81z"/></g><path d="m35.59 340.81h200v32h-200z" fill="none" stroke="#fff" stroke-miterlimit="10" stroke-width="2"/><path d="m291 340.81h32v32h-32z" fill="none" stroke="#fff" stroke-miterlimit="10" stroke-width="2"/><path d="m331 340.81h32v32h-32z" fill="none" stroke="#fff" stroke-miterlimit="10" stroke-width="2"/><path d="m84.87 358.89c0 1-.41 1.81-1.24 2.45-.82.64-1.95.96-3.37.96-.81 0-1.55-.1-2.22-.29s-1.24-.4-1.69-.63v-2.06h.1c.58.44 1.22.78 1.93 1.04s1.39.39 2.04.39c.81 0 1.44-.13 1.89-.39.46-.26.68-.67.68-1.23 0-.43-.12-.75-.37-.98-.25-.22-.72-.41-1.43-.57-.26-.06-.6-.13-1.02-.21s-.8-.16-1.15-.25c-.96-.25-1.64-.63-2.04-1.12s-.6-1.1-.6-1.81c0-.45.09-.87.28-1.27s.47-.75.84-1.06.83-.55 1.39-.73 1.19-.27 1.89-.27c.65 0 1.31.08 1.98.24s1.22.35 1.67.58v1.96h-.1c-.47-.34-1.04-.64-1.71-.87-.67-.24-1.33-.36-1.97-.36-.67 0-1.24.13-1.7.39s-.69.64-.69 1.15c0 .45.14.79.42 1.02.27.23.72.41 1.33.56.34.08.72.16 1.14.23s.77.15 1.05.21c.85.2 1.51.53 1.97 1.01.47.48.7 1.12.7 1.91z" fill="#fff"/><path d="m97.1 356.45c0 .89-.13 1.69-.38 2.43s-.61 1.35-1.07 1.86c-.43.48-.94.85-1.52 1.12-.58.26-1.2.4-1.85.4-.57 0-1.08-.06-1.54-.19s-.93-.32-1.4-.58v4.57h-1.84v-14.93h1.84v1.14c.49-.41 1.04-.75 1.65-1.03s1.26-.42 1.95-.42c1.32 0 2.34.5 3.07 1.49s1.09 2.37 1.09 4.14zm-1.89.05c0-1.32-.22-2.3-.67-2.95s-1.14-.98-2.07-.98c-.53 0-1.06.11-1.59.34s-1.04.53-1.53.9v6.18c.52.23.97.39 1.34.48.38.08.8.13 1.27.13 1.02 0 1.82-.34 2.39-1.04.57-.69.86-1.71.86-3.06z" fill="#fff"/><path d="m108.44 362.04h-1.83v-1.16c-.16.11-.38.27-.66.46-.28.2-.54.36-.81.47-.31.15-.66.28-1.05.38-.4.1-.86.15-1.4.15-.98 0-1.82-.33-2.5-.98s-1.03-1.48-1.03-2.49c0-.83.18-1.5.53-2.01.36-.51.86-.91 1.52-1.21.66-.29 1.46-.49 2.39-.6.93-.1 1.93-.18 3-.23v-.28c0-.42-.07-.76-.22-1.04s-.36-.49-.63-.64c-.26-.15-.57-.25-.94-.3-.36-.05-.75-.08-1.14-.08-.48 0-1.02.06-1.61.19s-1.2.31-1.84.55h-.1v-1.87c.36-.1.88-.21 1.55-.32.68-.12 1.34-.18 2-.18.77 0 1.44.06 2.01.19s1.06.34 1.48.65c.41.3.72.69.94 1.16s.32 1.06.32 1.77v7.42zm-1.83-2.69v-3.04c-.56.03-1.22.08-1.98.15s-1.36.16-1.8.28c-.53.15-.95.38-1.28.7s-.49.75-.49 1.3c0 .62.19 1.1.57 1.41.38.32.95.47 1.73.47.64 0 1.23-.12 1.77-.38.53-.24 1.03-.54 1.48-.89z" fill="#fff"/><path d="m120.04 361.35c-.61.29-1.19.52-1.74.68s-1.13.24-1.75.24c-.79 0-1.51-.12-2.17-.35s-1.22-.58-1.69-1.05-.84-1.06-1.1-1.78-.39-1.55-.39-2.51c0-1.78.49-3.18 1.47-4.2s2.27-1.52 3.88-1.52c.62 0 1.24.09 1.84.26.6.18 1.15.39 1.66.64v2.04h-.1c-.56-.44-1.14-.77-1.73-1.01s-1.18-.35-1.74-.35c-1.04 0-1.86.35-2.47 1.05-.6.7-.9 1.73-.9 3.08 0 1.32.29 2.33.88 3.03.59.71 1.42 1.06 2.49 1.06.37 0 .75-.05 1.13-.15s.73-.22 1.04-.38c.27-.14.52-.28.75-.43s.42-.29.56-.4h.1v2.05z" fill="#fff"/><path d="m131.52 356.77h-8.04c0 .67.1 1.25.3 1.75s.48.91.83 1.23c.34.31.74.55 1.21.7.47.16.98.23 1.54.23.74 0 1.49-.15 2.24-.44s1.29-.59 1.61-.87h.1v2c-.62.26-1.25.48-1.89.65s-1.32.26-2.03.26c-1.81 0-3.22-.49-4.24-1.47s-1.52-2.37-1.52-4.17c0-1.78.49-3.2 1.46-4.25s2.25-1.57 3.84-1.57c1.47 0 2.61.43 3.4 1.29.8.86 1.2 2.08 1.2 3.66v1zm-1.78-1.4c-.01-.96-.25-1.71-.73-2.24s-1.21-.79-2.18-.79c-.98 0-1.77.29-2.35.87s-.91 1.3-.99 2.16z" fill="#fff"/><path d="m153.51 354.4h-11.58v-1.56h11.58zm0 4.1h-11.58v-1.56h11.58z" fill="#fff"/><path d="m170.61 348.62h-.1c-.2-.06-.46-.12-.79-.18s-.61-.09-.86-.09c-.79 0-1.36.17-1.71.52s-.53.98-.53 1.89v.37h3.31v1.54h-3.25v9.37h-1.84v-9.37h-1.24v-1.54h1.24v-.36c0-1.3.32-2.29.97-2.98s1.58-1.04 2.79-1.04c.41 0 .78.02 1.11.06s.63.08.9.14z" fill="#fff"/><path d="m173.74 349.3h-2.07v-1.9h2.07zm-.12 12.74h-1.84v-10.91h1.84z" fill="#fff"/><path d="m184.06 353.13h-.1c-.27-.07-.54-.11-.8-.14s-.56-.04-.91-.04c-.57 0-1.11.12-1.64.38s-1.04.57-1.52.97v7.74h-1.84v-10.91h1.84v1.61c.73-.59 1.37-1 1.93-1.25s1.12-.37 1.7-.37c.32 0 .55.01.69.02.14.02.36.05.64.09v1.9z" fill="#fff"/><path d="m194.92 356.77h-8.04c0 .67.1 1.25.3 1.75s.48.91.83 1.23c.34.31.74.55 1.21.7.47.16.98.23 1.54.23.74 0 1.49-.15 2.24-.44s1.29-.59 1.61-.87h.1v2c-.62.26-1.25.48-1.89.65s-1.32.26-2.03.26c-1.81 0-3.22-.49-4.24-1.47s-1.52-2.37-1.52-4.17c0-1.78.49-3.2 1.46-4.25s2.25-1.57 3.84-1.57c1.47 0 2.61.43 3.4 1.29.8.86 1.2 2.08 1.2 3.66v1zm-1.78-1.4c-.01-.96-.25-1.71-.73-2.24s-1.21-.79-2.18-.79c-.98 0-1.77.29-2.35.87s-.91 1.3-.99 2.16z" fill="#fff"/><path d="m315 347-18 10 18 10z" fill="#fff"/><path d="m339 346.79 18 10-18 10z" fill="#fff"/></svg>