<svg enable-background="new 0 0 400 400" viewBox="0 0 400 400" xmlns="http://www.w3.org/2000/svg"><g fill="#0f0"><path d="m66.86 260.28-15.07 2.84-3.61-9.74-12.67 2.38.18 10.39-15.07 2.84-.19-72.86 20.13-3.79zm-24.12-21.49-7.84-21.09.37 22.5z"/><path d="m119.98 177.39.14 72.87-16.05 3.02-8.43-22.66.38 24.17-16.1 3.03-26.31-67.94 15.07-2.84 15.38 37.41-1.29-40.07 8.05-1.52 13.37 37.79.67-40.44z"/><path d="m173.44 240.22-35.2 6.63-13.25-70.4 35.2-6.63 2.85 15.12-20.08 3.78 2.37 12.57 20.08-3.78 2.84 15.07-20.08 3.78 2.37 12.57 20.08-3.78z"/><path d="m221.86 220.68-8.17 11.96-20.13 3.79-11.96-8.17-1.89-10.06 15.12-2.85.95 5.06 10.01-1.89-2.37-12.57-15.07 2.84-11.96-8.17-4.26-22.63 8.17-11.96 20.13-3.79 11.96 8.17 1.89 10.06-15.12 2.85-.94-5.01-10.01 1.89 2.37 12.57 15.07-2.84 11.95 8.12z"/><path d="m272.14 211.22-8.17 11.96-20.13 3.79-11.96-8.17-9.46-50.27 8.17-11.96 20.13-3.79 11.96 8.17zm-16.07-2.16-7.57-40.21-10.01 1.89 7.57 40.21z"/><path d="m334.31 209.94-15.07 2.84-4.73-25.14-5.33 27.03-14.75-23.25 4.73 25.14-15.12 2.85-13.25-70.41 15.12-2.85 14.75 23.25 5.33-27.03 15.07-2.84z"/><path d="m379.58 201.42-35.2 6.63-13.25-70.4 35.2-6.63 2.85 15.12-20.08 3.78 2.37 12.57 20.08-3.78 2.84 15.07-20.08 3.78 2.37 12.57 20.08-3.78z"/></g></svg>